<mxfile host="Electron" modified="2023-11-12T05:00:17.955Z" agent="Mozilla/5.0 (Windows NT 10.0; Win64; x64) AppleWebKit/537.36 (KHTML, like Gecko) draw.io/21.5.1 Chrome/112.0.5615.204 Electron/24.6.0 Safari/537.36" etag="LNMv7-8_JzLK8jvFujzB" version="21.5.1" type="device">
  <diagram name="Страница 1" id="RR1MDmwvZoj0B3ErbCyy">
    <mxGraphModel dx="1731" dy="583" grid="1" gridSize="10" guides="1" tooltips="1" connect="1" arrows="1" fold="1" page="1" pageScale="1" pageWidth="827" pageHeight="1169" math="0" shadow="0">
      <root>
        <mxCell id="0" />
        <mxCell id="1" parent="0" />
        <mxCell id="fniRWqjcXJR-BEy9FqeF-3" value="" style="edgeStyle=orthogonalEdgeStyle;rounded=0;orthogonalLoop=1;jettySize=auto;html=1;" edge="1" parent="1" source="fniRWqjcXJR-BEy9FqeF-1" target="fniRWqjcXJR-BEy9FqeF-2">
          <mxGeometry relative="1" as="geometry" />
        </mxCell>
        <mxCell id="fniRWqjcXJR-BEy9FqeF-1" value="Начало" style="ellipse;whiteSpace=wrap;html=1;" vertex="1" parent="1">
          <mxGeometry x="310" y="30" width="90" height="50" as="geometry" />
        </mxCell>
        <mxCell id="fniRWqjcXJR-BEy9FqeF-6" value="" style="edgeStyle=orthogonalEdgeStyle;rounded=0;orthogonalLoop=1;jettySize=auto;html=1;" edge="1" parent="1" source="fniRWqjcXJR-BEy9FqeF-2" target="fniRWqjcXJR-BEy9FqeF-5">
          <mxGeometry relative="1" as="geometry" />
        </mxCell>
        <mxCell id="fniRWqjcXJR-BEy9FqeF-2" value="mass=[i]&lt;br&gt;size = 3&lt;br&gt;lenthmass" style="whiteSpace=wrap;html=1;" vertex="1" parent="1">
          <mxGeometry x="295" y="130" width="120" height="60" as="geometry" />
        </mxCell>
        <mxCell id="fniRWqjcXJR-BEy9FqeF-8" value="" style="edgeStyle=orthogonalEdgeStyle;rounded=0;orthogonalLoop=1;jettySize=auto;html=1;" edge="1" parent="1" source="fniRWqjcXJR-BEy9FqeF-5" target="fniRWqjcXJR-BEy9FqeF-7">
          <mxGeometry relative="1" as="geometry">
            <Array as="points">
              <mxPoint x="140" y="260" />
            </Array>
          </mxGeometry>
        </mxCell>
        <mxCell id="fniRWqjcXJR-BEy9FqeF-9" value="Yes" style="edgeLabel;html=1;align=center;verticalAlign=middle;resizable=0;points=[];" vertex="1" connectable="0" parent="fniRWqjcXJR-BEy9FqeF-8">
          <mxGeometry x="-0.3029" y="3" relative="1" as="geometry">
            <mxPoint as="offset" />
          </mxGeometry>
        </mxCell>
        <mxCell id="fniRWqjcXJR-BEy9FqeF-17" value="" style="edgeStyle=orthogonalEdgeStyle;rounded=0;orthogonalLoop=1;jettySize=auto;html=1;" edge="1" parent="1" source="fniRWqjcXJR-BEy9FqeF-5" target="fniRWqjcXJR-BEy9FqeF-16">
          <mxGeometry relative="1" as="geometry" />
        </mxCell>
        <mxCell id="fniRWqjcXJR-BEy9FqeF-5" value="i&amp;lt;=lenthmass" style="rhombus;whiteSpace=wrap;html=1;" vertex="1" parent="1">
          <mxGeometry x="220" y="220" width="270" height="80" as="geometry" />
        </mxCell>
        <mxCell id="fniRWqjcXJR-BEy9FqeF-11" value="" style="edgeStyle=orthogonalEdgeStyle;rounded=0;orthogonalLoop=1;jettySize=auto;html=1;" edge="1" parent="1" source="fniRWqjcXJR-BEy9FqeF-7" target="fniRWqjcXJR-BEy9FqeF-10">
          <mxGeometry relative="1" as="geometry">
            <Array as="points">
              <mxPoint x="10" y="340" />
              <mxPoint x="10" y="405" />
              <mxPoint x="50" y="405" />
            </Array>
          </mxGeometry>
        </mxCell>
        <mxCell id="fniRWqjcXJR-BEy9FqeF-12" value="Yes" style="edgeLabel;html=1;align=center;verticalAlign=middle;resizable=0;points=[];" vertex="1" connectable="0" parent="fniRWqjcXJR-BEy9FqeF-11">
          <mxGeometry x="-0.8012" y="-1" relative="1" as="geometry">
            <mxPoint as="offset" />
          </mxGeometry>
        </mxCell>
        <mxCell id="fniRWqjcXJR-BEy9FqeF-14" value="" style="edgeStyle=orthogonalEdgeStyle;rounded=0;orthogonalLoop=1;jettySize=auto;html=1;" edge="1" parent="1" source="fniRWqjcXJR-BEy9FqeF-7" target="fniRWqjcXJR-BEy9FqeF-13">
          <mxGeometry relative="1" as="geometry" />
        </mxCell>
        <mxCell id="fniRWqjcXJR-BEy9FqeF-15" value="No" style="edgeLabel;html=1;align=center;verticalAlign=middle;resizable=0;points=[];" vertex="1" connectable="0" parent="fniRWqjcXJR-BEy9FqeF-14">
          <mxGeometry x="-0.3575" y="-3" relative="1" as="geometry">
            <mxPoint as="offset" />
          </mxGeometry>
        </mxCell>
        <mxCell id="fniRWqjcXJR-BEy9FqeF-7" value="сравнение элемента с условием size_c&amp;lt;=size" style="rhombus;whiteSpace=wrap;html=1;" vertex="1" parent="1">
          <mxGeometry x="43" y="300" width="190" height="80" as="geometry" />
        </mxCell>
        <mxCell id="fniRWqjcXJR-BEy9FqeF-23" style="edgeStyle=orthogonalEdgeStyle;rounded=0;orthogonalLoop=1;jettySize=auto;html=1;" edge="1" parent="1" source="fniRWqjcXJR-BEy9FqeF-10">
          <mxGeometry relative="1" as="geometry">
            <mxPoint x="200" y="570" as="targetPoint" />
            <Array as="points">
              <mxPoint x="50" y="510" />
              <mxPoint x="201" y="510" />
            </Array>
          </mxGeometry>
        </mxCell>
        <mxCell id="fniRWqjcXJR-BEy9FqeF-10" value="оставляем элемент в массиве, перезаписав его&amp;nbsp;" style="whiteSpace=wrap;html=1;" vertex="1" parent="1">
          <mxGeometry x="-10" y="430" width="120" height="60" as="geometry" />
        </mxCell>
        <mxCell id="fniRWqjcXJR-BEy9FqeF-21" value="" style="edgeStyle=orthogonalEdgeStyle;rounded=0;orthogonalLoop=1;jettySize=auto;html=1;" edge="1" parent="1" source="fniRWqjcXJR-BEy9FqeF-13" target="fniRWqjcXJR-BEy9FqeF-20">
          <mxGeometry relative="1" as="geometry" />
        </mxCell>
        <mxCell id="fniRWqjcXJR-BEy9FqeF-13" value="убираем элемент из массива" style="whiteSpace=wrap;html=1;" vertex="1" parent="1">
          <mxGeometry x="250" y="390" width="120" height="60" as="geometry" />
        </mxCell>
        <mxCell id="fniRWqjcXJR-BEy9FqeF-19" value="" style="edgeStyle=orthogonalEdgeStyle;rounded=0;orthogonalLoop=1;jettySize=auto;html=1;" edge="1" parent="1" source="fniRWqjcXJR-BEy9FqeF-16" target="fniRWqjcXJR-BEy9FqeF-18">
          <mxGeometry relative="1" as="geometry" />
        </mxCell>
        <mxCell id="fniRWqjcXJR-BEy9FqeF-16" value="печать нового массива с элементами равными или меньше size" style="whiteSpace=wrap;html=1;" vertex="1" parent="1">
          <mxGeometry x="520" y="470" width="120" height="80" as="geometry" />
        </mxCell>
        <mxCell id="fniRWqjcXJR-BEy9FqeF-18" value="конец" style="ellipse;whiteSpace=wrap;html=1;" vertex="1" parent="1">
          <mxGeometry x="540" y="630" width="80" height="80" as="geometry" />
        </mxCell>
        <mxCell id="fniRWqjcXJR-BEy9FqeF-22" style="edgeStyle=orthogonalEdgeStyle;rounded=0;orthogonalLoop=1;jettySize=auto;html=1;entryX=0.5;entryY=0;entryDx=0;entryDy=0;" edge="1" parent="1">
          <mxGeometry relative="1" as="geometry">
            <mxPoint x="190" y="630" as="sourcePoint" />
            <mxPoint x="345" y="220" as="targetPoint" />
            <Array as="points">
              <mxPoint x="190" y="640" />
              <mxPoint x="-30" y="640" />
              <mxPoint x="-30" y="200" />
              <mxPoint x="345" y="200" />
            </Array>
          </mxGeometry>
        </mxCell>
        <mxCell id="fniRWqjcXJR-BEy9FqeF-20" value="i + =1" style="whiteSpace=wrap;html=1;" vertex="1" parent="1">
          <mxGeometry x="140" y="570" width="120" height="60" as="geometry" />
        </mxCell>
      </root>
    </mxGraphModel>
  </diagram>
</mxfile>
